<svg width="20" height="20" viewBox="0 0 20 20" fill="currentColor" xmlns="http://www.w3.org/2000/svg">
<path d="M10 20C15.5228 20 20 15.5228 20 10C20 4.47715 15.5228 0 10 0C4.47715 0 0 4.47715 0 10C0 15.5228 4.47715 20 10 20Z" fill="#6E7E91"/>
<path d="M4.99989 0.717896C2.63495 0.717896 0.717773 2.63507 0.717773 5.00001C0.717773 7.36495 2.63495 9.28213 4.99989 9.28213C7.36483 9.28213 9.28201 7.36495 9.28201 5.00001C9.28201 2.63507 7.36483 0.717896 4.99989 0.717896ZM4.99989 8.50004V1.50002C6.66175 1.4956 8.09493 2.6667 8.4217 4.29611C8.52597 4.75959 8.52597 5.24044 8.4217 5.70392C8.09489 7.3334 6.66175 8.50449 4.99989 8.50004Z" fill="white"/>
<path d="M0.441683 2.55866C0.513877 2.63235 0.61227 2.67449 0.715416 2.67599C0.818562 2.67453 0.916955 2.63235 0.989149 2.55866L1.94725 1.60056C2.12005 1.47095 2.15504 1.22585 2.02547 1.05306C1.89591 0.88026 1.65077 0.845267 1.47797 0.974835C1.44833 0.997066 1.42198 1.02341 1.39975 1.05306L0.441645 2.01116C0.290444 2.14986 0.280339 2.38489 0.419077 2.53605C0.426301 2.54391 0.433823 2.55144 0.441683 2.55866Z" fill="white"/>
<path d="M2.48036 0.441483C2.34132 0.337214 2.15011 0.337214 2.01107 0.441483L1.05297 1.39959C0.901772 1.53829 0.891668 1.77332 1.03041 1.92449C1.03759 1.93235 1.04515 1.93987 1.05297 1.94705C1.19167 2.09826 1.42671 2.10836 1.57787 1.96962C1.58573 1.96244 1.59325 1.95488 1.60044 1.94705L2.55854 0.98895C2.68815 0.816191 2.65315 0.571052 2.48036 0.441483Z" fill="white"/>
<path d="M1.94708 1.39951L0.988982 0.441404C0.816188 0.311798 0.571087 0.346829 0.441482 0.519625C0.337214 0.658662 0.337214 0.849872 0.441482 0.988909L1.39958 1.94702C1.53828 2.09822 1.77331 2.10832 1.92447 1.96958C1.93233 1.9624 1.93986 1.95484 1.94704 1.94702C2.09824 1.80831 2.10835 1.57328 1.96961 1.42211C1.96246 1.41422 1.95494 1.4067 1.94708 1.39951Z" fill="white"/>
<path d="M2.01095 2.55866C2.14965 2.70986 2.38468 2.71997 2.53585 2.58123C2.54371 2.57404 2.55123 2.56648 2.55842 2.55866C2.70962 2.41996 2.71972 2.18493 2.58098 2.03377C2.5738 2.02591 2.56624 2.01838 2.55842 2.0112L1.60031 1.0531C1.42752 0.923493 1.18242 0.958523 1.05281 1.13132C0.948542 1.27035 0.948542 1.46156 1.05281 1.6006L2.01095 2.55866Z" fill="white"/>
<path d="M1.00044 2.13129C1.21642 2.13129 1.3915 1.95621 1.3915 1.74023V0.391063C1.3915 0.175078 1.21642 0 1.00044 0C0.784453 0 0.609375 0.175078 0.609375 0.391063V1.74023C0.609375 1.95621 0.784453 2.13129 1.00044 2.13129Z" fill="white"/>
<path d="M1.00044 0.868774C0.784453 0.868774 0.609375 1.04385 0.609375 1.25984V2.609C0.609375 2.82499 0.784453 3.00006 1.00044 3.00006C1.21642 3.00006 1.3915 2.82499 1.3915 2.609V1.25984C1.3915 1.04385 1.21642 0.868774 1.00044 0.868774Z" fill="white"/>
<path d="M2.60937 0.609009H1.2602C1.04422 0.609009 0.869141 0.784085 0.869141 1.00007C0.869141 1.21605 1.04422 1.39113 1.2602 1.39113H2.60937C2.82535 1.39113 3.00043 1.21605 3.00043 1.00007C3.00043 0.784085 2.82532 0.609009 2.60937 0.609009Z" fill="white"/>
<path d="M2.13129 1.00007C2.13129 0.784085 1.95621 0.609009 1.74023 0.609009H0.391063C0.175078 0.609009 0 0.784085 0 1.00007C0 1.21605 0.175078 1.39113 0.391063 1.39113H1.74023C1.95621 1.39113 2.13129 1.21605 2.13129 1.00007Z" fill="white"/>
</svg>
